<?xml version="1.0" standalone="no"?>
<!DOCTYPE svg PUBLIC "-//W3C//DTD SVG 20010904//EN"
 "http://www.w3.org/TR/2001/REC-SVG-20010904/DTD/svg10.dtd">
<svg version="1.0" xmlns="http://www.w3.org/2000/svg"
 width="1514.000000pt" height="371.000000pt" viewBox="0 0 1514.000000 371.000000"
 preserveAspectRatio="xMidYMid meet">

<g transform="translate(0.000000,371.000000) scale(0.100000,-0.100000)"
fill="#000000" stroke="none">
<path d="M467 3383 c-4 -3 -7 -582 -7 -1285 l0 -1278 3573 2 c3564 3 3572 3
3572 23 0 20 -8 20 -3529 23 -2589 1 -3533 5 -3542 13 -12 10 -14 218 -14
1225 l0 1214 23 5 c12 3 3134 4 6937 3 l6915 -3 3 -1214 c1 -885 -1 -1218 -9
-1227 -9 -11 -137 -14 -703 -16 -683 -3 -691 -3 -691 -23 0 -20 8 -20 733 -23
l732 -2 -2 1282 -3 1283 -6991 3 c-3845 1 -6994 -1 -6997 -5z"/>
<path d="M12270 2438 c75 -70 239 -181 290 -196 19 -6 71 -15 115 -21 44 -6
136 -17 205 -26 69 -8 153 -20 186 -25 75 -12 114 -13 114 -2 0 20 -63 94 -88
103 -25 10 -62 20 -307 84 -49 13 -142 37 -205 54 -63 16 -141 37 -172 45 -32
9 -83 23 -113 31 -93 25 -95 19 -25 -47z"/>
<path d="M4440 2370 c-185 -31 -297 -210 -256 -409 23 -110 60 -164 151 -216
109 -64 342 -49 374 23 14 30 14 267 1 293 -10 17 -22 19 -110 19 l-100 0 0
-35 0 -35 64 0 c76 0 76 0 76 -115 0 -107 -9 -115 -125 -115 -93 0 -142 19
-192 71 -50 53 -66 105 -62 202 5 107 37 166 119 215 48 28 63 32 127 32 47 0
90 -7 122 -19 28 -10 52 -16 55 -13 4 3 6 18 6 33 0 36 -32 56 -112 69 -70 11
-74 11 -138 0z"/>
<path d="M8289 2371 c-51 -11 -124 -56 -154 -96 -47 -61 -65 -125 -65 -233 0
-156 46 -249 151 -307 45 -24 63 -28 133 -28 130 -1 213 50 265 162 36 80 42
231 12 312 -47 123 -123 184 -241 193 -36 3 -81 1 -101 -3z m171 -90 c34 -21
58 -49 83 -96 18 -34 22 -56 21 -145 0 -87 -4 -112 -21 -145 -45 -86 -91 -115
-183 -115 -66 0 -110 17 -148 57 -100 108 -87 345 24 429 55 42 169 50 224 15z"/>
<path d="M1555 2358 c-3 -7 -4 -155 -3 -328 l3 -315 180 0 180 0 3 27 c4 35
-7 37 -163 41 l-120 2 0 105 0 105 120 5 120 5 0 30 0 30 -120 5 -120 5 0 110
0 110 138 3 138 3 -3 32 -3 32 -173 3 c-133 2 -174 0 -177 -10z"/>
<path d="M2050 2039 l0 -330 33 3 32 3 5 270 5 270 41 -65 c22 -36 43 -70 45
-75 2 -6 57 -99 122 -208 l119 -198 46 3 47 3 3 322 c2 315 2 322 -18 328 -11
3 -29 3 -41 0 -21 -7 -21 -10 -18 -263 3 -198 1 -257 -8 -257 -11 0 -73 100
-184 292 -62 109 -131 218 -142 225 -7 4 -29 8 -49 8 l-38 0 0 -331z"/>
<path d="M2657 2363 c-4 -3 -7 -19 -7 -34 l0 -28 83 -3 82 -3 3 -287 2 -288
25 -6 c55 -14 54 -19 57 293 l3 288 85 5 c80 5 85 6 88 29 2 13 -2 28 -10 32
-15 10 -402 12 -411 2z"/>
<path d="M3182 2364 c-10 -5 -12 -75 -12 -324 1 -345 -1 -330 56 -330 24 0 24
0 24 114 0 63 3 121 6 130 4 12 20 16 53 16 l48 0 80 -127 c73 -118 83 -128
113 -131 18 -2 37 1 41 5 6 6 -22 58 -66 127 -41 64 -75 123 -75 131 0 8 9 16
20 20 11 3 35 24 54 47 41 47 55 118 37 185 -26 97 -95 135 -256 139 -60 2
-116 1 -123 -2z m241 -80 c52 -26 67 -52 67 -116 0 -53 -3 -60 -36 -93 l-35
-36 -82 3 -82 3 -3 114 c-1 63 0 121 2 128 8 19 129 17 169 -3z"/>
<path d="M3723 2363 c-10 -4 -13 -78 -13 -323 0 -281 2 -319 16 -324 28 -11
342 -7 349 5 4 5 4 21 1 34 -6 24 -8 24 -144 27 l-137 3 0 105 0 105 109 3
c112 3 136 10 136 43 0 24 -21 28 -145 32 l-100 2 0 110 0 110 138 3 137 3 0
34 0 35 -167 -1 c-93 0 -174 -3 -180 -6z"/>
<path d="M5054 2362 c-6 -4 -14 -18 -18 -32 -4 -14 -11 -34 -16 -45 -5 -11
-21 -56 -35 -100 -15 -44 -30 -89 -35 -100 -5 -11 -10 -29 -13 -40 -4 -17 -58
-172 -74 -215 -25 -65 -39 -111 -35 -115 8 -8 55 -6 68 3 5 4 18 30 28 57 10
28 22 62 28 78 l11 28 140 -3 141 -3 27 -80 c24 -71 30 -80 54 -83 57 -7 57
-4 -11 195 -36 103 -84 246 -108 317 -24 70 -49 132 -57 137 -17 11 -80 12
-95 1z m109 -240 c26 -81 47 -153 47 -159 0 -10 -29 -13 -110 -13 -72 0 -110
4 -110 11 0 8 53 174 95 297 13 37 34 0 78 -136z"/>
<path d="M5583 2345 c-114 -58 -134 -189 -41 -269 21 -18 76 -52 121 -74 104
-52 117 -63 123 -103 7 -43 -8 -84 -40 -104 -33 -22 -164 -22 -205 0 -43 22
-51 19 -51 -19 0 -30 4 -36 43 -51 27 -11 70 -18 122 -18 93 -1 147 21 189 76
22 29 26 44 26 100 0 64 -2 69 -38 105 -21 21 -78 57 -127 81 -117 57 -135 73
-135 125 1 44 11 62 50 89 30 21 117 23 163 4 40 -17 57 -12 57 17 0 42 -33
59 -123 64 -73 3 -88 1 -134 -23z"/>
<path d="M6258 2364 c-5 -4 -8 -153 -8 -332 l0 -324 148 4 c130 3 153 6 196
28 128 63 192 198 172 363 -14 108 -107 216 -213 246 -54 15 -284 27 -295 15z
m284 -87 c58 -26 110 -78 133 -134 24 -56 19 -162 -9 -225 -47 -107 -109 -141
-251 -136 l-90 3 -3 249 c-2 193 1 251 10 258 7 4 45 8 85 8 54 0 86 -6 125
-23z"/>
<path d="M6907 2364 c-4 -4 -7 -153 -7 -331 l0 -323 175 0 c153 0 176 2 182
16 3 9 2 24 -4 33 -8 13 -35 17 -144 21 l-134 5 0 105 0 105 120 5 120 5 0 30
0 30 -120 5 -120 5 0 110 0 110 138 3 138 3 -3 32 -3 32 -166 3 c-91 1 -168
-1 -172 -4z"/>
<path d="M7625 2358 c-3 -7 -4 -155 -3 -328 l3 -315 175 0 175 0 0 30 0 30
-135 5 -135 5 -5 290 -5 290 -33 3 c-20 2 -34 -2 -37 -10z"/>
<path d="M8880 2354 c-72 -31 -110 -86 -110 -159 0 -85 36 -125 173 -191 106
-51 127 -72 127 -128 0 -37 -5 -48 -31 -70 -17 -15 -44 -27 -62 -27 -64 -3
-120 3 -153 17 -48 20 -54 18 -54 -20 0 -30 4 -36 43 -51 48 -20 186 -24 228
-7 86 35 134 125 109 205 -20 62 -53 92 -160 144 -113 56 -129 69 -136 115
-15 92 95 146 214 104 46 -17 52 -14 52 26 0 24 -6 32 -35 44 -45 18 -160 17
-205 -2z"/>
<path d="M9716 2348 c-9 -12 -16 -28 -16 -35 0 -7 -4 -21 -10 -31 -5 -9 -21
-53 -35 -97 -15 -44 -29 -87 -32 -95 -18 -50 -124 -357 -126 -365 -1 -5 16
-10 37 -10 37 0 40 2 52 40 8 22 21 59 30 83 l16 43 140 -3 141 -3 28 -80 c24
-71 30 -80 54 -83 57 -7 57 -3 -1 165 -30 87 -73 212 -95 278 -22 66 -44 128
-49 137 -6 10 -10 29 -10 42 0 26 -21 36 -77 36 -22 0 -37 -7 -47 -22z m89
-140 c10 -35 22 -70 26 -78 10 -22 49 -154 49 -168 0 -9 -32 -12 -110 -12 -82
0 -110 3 -110 13 0 6 20 73 46 147 25 74 47 141 49 148 10 30 32 8 50 -50z"/>
<path d="M10177 2364 c-4 -4 -7 -153 -7 -331 l0 -323 173 2 172 3 0 30 0 30
-135 5 -135 5 -5 290 -5 290 -25 3 c-14 2 -29 0 -33 -4z"/>
<path d="M10635 2359 c-3 -8 -4 -156 -3 -329 l3 -315 35 0 35 0 3 118 3 117
67 0 c127 0 212 43 251 124 37 79 22 165 -40 226 -49 48 -93 61 -231 67 -95 4
-119 3 -123 -8z m253 -73 c71 -37 100 -119 68 -188 -26 -54 -78 -78 -170 -78
l-76 0 0 140 0 140 75 0 c46 0 87 -6 103 -14z"/>
<path d="M11177 2364 c-4 -4 -7 -153 -7 -331 l0 -323 174 0 c112 0 177 4 181
11 4 5 4 21 1 34 -6 24 -8 24 -144 27 l-137 3 0 105 0 105 120 5 120 5 0 30 0
30 -120 5 -120 5 0 110 0 110 138 3 138 3 -3 32 -3 32 -166 3 c-91 1 -168 -1
-172 -4z"/>
<path d="M11754 2351 c-84 -38 -124 -115 -102 -199 14 -54 57 -92 165 -145
111 -53 133 -75 133 -127 0 -53 -42 -99 -92 -101 -65 -3 -121 3 -154 17 -48
20 -54 18 -54 -20 0 -31 4 -36 43 -50 134 -48 276 -15 322 74 8 16 15 52 15
80 0 92 -30 125 -183 200 -97 47 -117 68 -117 120 0 40 26 75 67 91 35 13 108
11 146 -4 42 -18 57 -12 57 23 0 22 -7 31 -34 44 -48 22 -159 21 -212 -3z"/>
<path d="M12456 2201 c-16 -26 191 -164 279 -185 17 -4 137 -4 268 0 219 6
237 8 237 25 0 31 -42 68 -90 78 -25 6 -103 17 -175 26 -125 15 -198 25 -350
45 -145 19 -163 21 -169 11z"/>
<path d="M13060 1979 c-47 -4 -150 -8 -230 -9 -199 -2 -217 -12 -110 -62 72
-34 147 -58 180 -58 15 0 71 10 126 21 108 24 169 36 227 45 42 7 49 30 19 57
-20 18 -62 20 -212 6z"/>
<path d="M13241 1882 c-5 -9 -10 -82 -10 -161 -2 -137 -1 -143 16 -130 35 28
87 109 109 169 21 59 -24 140 -77 140 -17 0 -32 -7 -38 -18z"/>
<path d="M13129 1867 c-9 -6 -20 -21 -26 -32 -17 -34 -45 -164 -39 -181 6 -15
9 -14 34 2 35 23 46 38 77 102 33 68 31 116 -5 119 -14 2 -32 -3 -41 -10z"/>
<path d="M13013 1831 c-32 -20 -73 -78 -73 -105 0 -29 33 -17 77 29 61 64 58
113 -4 76z"/>
<path d="M9610 962 c0 -21 -5 -43 -11 -49 -8 -8 -8 -13 0 -17 14 -9 14 -93 0
-102 -8 -4 -7 -9 2 -15 7 -4 17 -5 21 -3 12 8 10 224 -2 224 -5 0 -10 -17 -10
-38z"/>
<path d="M12390 963 c0 -23 -5 -45 -10 -48 -7 -4 -7 -12 0 -25 13 -24 13 -66
0 -90 -7 -13 -6 -19 4 -23 8 -3 17 -3 20 0 10 10 6 197 -4 213 -7 11 -10 4
-10 -27z"/>
<path d="M12788 987 c-5 -10 -8 -32 -8 -48 0 -16 -5 -29 -12 -29 -9 0 -9 -3 0
-12 15 -15 16 -95 1 -104 -8 -5 -6 -10 5 -16 10 -6 20 -8 22 -5 3 2 3 56 2
118 -2 63 -6 106 -10 96z"/>
<path d="M7816 964 c-14 -37 -6 -63 26 -78 17 -9 39 -16 49 -16 24 0 59 -30
59 -50 0 -9 -6 -22 -12 -29 -11 -10 -9 -12 7 -9 15 2 21 12 23 38 3 33 0 37
-36 53 -21 9 -47 17 -57 17 -38 0 -59 61 -27 79 15 9 15 10 -4 11 -12 0 -25
-7 -28 -16z"/>
<path d="M7928 973 c7 -3 16 -2 19 1 4 3 -2 6 -13 5 -11 0 -14 -3 -6 -6z"/>
<path d="M9220 952 c0 -17 -5 -34 -10 -37 -7 -4 -7 -12 0 -25 15 -28 12 -77
-6 -94 -14 -15 -13 -16 9 -16 l25 0 -4 97 c-2 53 -6 99 -9 101 -3 3 -5 -9 -5
-26z"/>
<path d="M10991 971 c0 -8 -8 -23 -17 -33 -16 -16 -15 -18 0 -24 14 -6 17 -18
16 -68 -3 -84 -3 -86 21 -86 19 0 19 1 5 16 -23 22 -22 132 0 141 15 6 15 7 2
17 -9 6 -18 20 -21 31 -2 11 -5 14 -6 6z"/>
<path d="M8365 929 c-17 -6 -15 -8 10 -8 18 -1 38 -10 48 -21 22 -26 23 -96 1
-104 -8 -3 -12 -11 -9 -17 13 -20 45 28 45 66 0 53 -54 101 -95 84z"/>
<path d="M8745 930 c-4 -6 7 -10 27 -10 25 0 29 3 18 10 -19 13 -37 13 -45 0z"/>
<path d="M9122 924 c-12 -8 -29 -28 -37 -43 -14 -28 -10 -71 6 -71 5 0 9 -7 9
-15 0 -8 8 -15 17 -15 14 0 13 3 -5 23 -25 27 -29 72 -7 81 8 3 15 12 15 21 0
10 10 15 31 15 17 0 28 4 24 10 -9 14 -27 12 -53 -6z"/>
<path d="M9501 914 c-24 -20 -31 -34 -31 -62 1 -40 19 -72 41 -72 10 1 9 4 -3
14 -23 17 -24 79 -1 106 10 11 30 20 48 21 26 0 27 2 10 9 -29 13 -31 12 -64
-16z"/>
<path d="M10010 929 c-20 -6 -17 -7 18 -8 23 -1 42 1 42 3 0 9 -37 12 -60 5z"/>
<path d="M11245 929 c-29 -7 -29 -7 8 -8 20 0 37 -5 37 -11 0 -5 4 -10 10 -10
13 0 2 27 -13 32 -7 3 -25 1 -42 -3z"/>
<path d="M11530 930 c-11 -7 -6 -10 20 -10 26 0 31 3 20 10 -8 5 -17 10 -20
10 -3 0 -12 -5 -20 -10z"/>
<path d="M11915 930 c-16 -7 -11 -9 20 -9 29 -1 36 2 25 9 -17 11 -19 11 -45
0z"/>
<path d="M12281 914 c-25 -21 -31 -33 -31 -66 0 -40 17 -68 42 -68 9 1 7 5 -4
14 -25 18 -24 87 0 109 10 10 29 17 43 17 19 0 21 2 9 10 -21 14 -25 13 -59
-16z"/>
<path d="M12510 929 c-22 -6 -20 -7 13 -8 38 -1 47 3 25 11 -7 3 -24 1 -38 -3z"/>
<path d="M12678 922 c-33 -23 -38 -32 -38 -78 0 -42 31 -87 45 -65 3 6 -1 14
-9 17 -11 4 -16 19 -16 49 0 46 19 71 60 77 24 3 24 4 3 10 -13 3 -31 -1 -45
-10z"/>
<path d="M8140 879 c0 -28 -5 -60 -11 -71 -8 -16 -8 -22 2 -29 7 -4 17 -5 21
-3 12 8 10 154 -2 154 -5 0 -10 -23 -10 -51z"/>
<path d="M8307 923 c-11 -10 -8 -221 3 -228 6 -4 10 10 10 34 0 22 5 43 10 46
7 4 7 12 0 25 -13 24 -13 83 0 96 8 8 7 14 -3 22 -8 7 -17 9 -20 5z"/>
<path d="M8630 850 c0 -59 3 -80 10 -70 5 8 10 40 10 70 0 30 -5 62 -10 70 -7
10 -10 -11 -10 -70z"/>
<path d="M9338 923 c12 -2 30 -2 40 0 9 3 -1 5 -23 4 -22 0 -30 -2 -17 -4z"/>
<path d="M9828 923 c12 -2 30 -2 40 0 9 3 -1 5 -23 4 -22 0 -30 -2 -17 -4z"/>
<path d="M10220 843 c0 -61 3 -83 10 -73 5 8 10 38 10 66 0 27 4 54 10 60 6 6
3 14 -10 22 -19 12 -20 9 -20 -75z"/>
<path d="M10295 923 c32 -8 38 -18 45 -85 l8 -63 -2 75 -1 75 -35 2 c-19 1
-26 -1 -15 -4z"/>
<path d="M10668 923 c12 -2 30 -2 40 0 9 3 -1 5 -23 4 -22 0 -30 -2 -17 -4z"/>
<path d="M10848 923 c12 -2 32 -2 45 0 12 2 2 4 -23 4 -25 0 -35 -2 -22 -4z"/>
<path d="M11080 850 c0 -47 4 -80 10 -80 6 0 10 24 10 53 0 28 4 58 9 66 8 13
-8 41 -23 41 -3 0 -6 -36 -6 -80z"/>
<path d="M12180 852 c0 -53 4 -81 10 -77 13 8 13 125 0 145 -7 10 -10 -11 -10
-68z"/>
<path d="M8516 913 c-10 -11 -7 -133 4 -133 6 0 10 24 10 53 0 29 5 58 11 64
7 7 6 12 -4 16 -8 3 -18 3 -21 0z"/>
<path d="M10413 865 c0 -33 2 -45 4 -27 2 18 2 45 0 60 -2 15 -4 0 -4 -33z"/>
<path d="M10546 908 c-3 -7 -7 -37 -10 -67 -4 -39 -1 -57 9 -68 13 -13 15 -5
15 66 0 75 -5 99 -14 69z"/>
<path d="M11478 914 c-7 -7 -1 -195 7 -202 3 -3 5 9 5 27 0 19 6 34 15 37 13
5 13 8 0 21 -17 16 -20 89 -5 98 6 4 8 11 5 16 -7 10 -19 12 -27 3z"/>
<path d="M12060 852 c0 -39 5 -74 10 -77 6 -4 10 14 10 46 0 35 6 59 17 71 9
10 11 18 5 18 -6 0 -17 3 -26 6 -14 5 -16 -4 -16 -64z"/>
<path d="M8700 883 c0 -29 2 -29 19 5 10 18 9 22 -4 22 -10 0 -15 -9 -15 -27z"/>
<path d="M8816 895 c4 -8 8 -15 10 -15 2 0 4 7 4 15 0 8 -4 15 -10 15 -5 0 -7
-7 -4 -15z"/>
<path d="M8900 890 c0 -11 3 -20 8 -20 4 0 15 9 25 20 16 19 16 20 -8 20 -18
0 -25 -5 -25 -20z"/>
<path d="M9398 888 c-2 -17 -12 -25 -38 -29 l-35 -6 39 -2 c38 -1 39 -1 33
-36 -4 -26 -2 -35 9 -35 11 0 14 15 14 65 0 62 -15 91 -22 43z"/>
<path d="M9776 894 c-18 -47 7 -135 31 -110 3 3 1 6 -6 6 -9 0 -12 17 -9 60 3
58 -4 77 -16 44z"/>
<path d="M10612 881 c-15 -43 3 -101 32 -101 6 0 6 4 -3 9 -9 6 -12 25 -10 65
4 62 -3 72 -19 27z"/>
<path d="M10735 900 c3 -5 8 -10 11 -10 2 0 4 5 4 10 0 6 -5 10 -11 10 -5 0
-7 -4 -4 -10z"/>
<path d="M10806 898 c-10 -23 15 -48 46 -47 22 1 22 2 -4 12 -15 6 -29 20 -31
31 -3 19 -4 19 -11 4z"/>
<path d="M11590 901 c0 -6 5 -13 10 -16 6 -3 10 1 10 9 0 9 -4 16 -10 16 -5 0
-10 -4 -10 -9z"/>
<path d="M11680 891 c0 -30 14 -32 27 -5 10 21 9 24 -8 24 -12 0 -19 -7 -19
-19z"/>
<path d="M11870 900 c0 -5 4 -10 9 -10 6 0 13 5 16 10 3 6 -1 10 -9 10 -9 0
-16 -4 -16 -10z"/>
<path d="M11978 904 c6 -3 12 -12 12 -20 0 -8 5 -14 11 -14 19 0 4 35 -16 37
-11 2 -14 0 -7 -3z"/>
<path d="M12567 886 c5 -23 2 -25 -38 -29 l-44 -4 43 -1 44 -2 -4 -37 c-2 -23
2 -38 10 -41 10 -3 12 12 10 64 -2 38 -8 69 -14 71 -7 2 -10 -5 -7 -21z"/>
<path d="M9965 890 c-3 -5 -1 -10 4 -10 6 0 11 5 11 10 0 6 -2 10 -4 10 -3 0
-8 -4 -11 -10z"/>
<path d="M11310 876 c0 -10 -14 -16 -42 -19 l-43 -4 43 -1 c37 -2 42 -5 42
-26 0 -14 -5 -28 -11 -32 -8 -4 -7 -9 2 -15 25 -16 29 -9 29 51 0 33 -4 60
-10 60 -5 0 -10 -6 -10 -14z"/>
<path d="M8840 848 c0 -23 3 -29 9 -19 8 12 4 51 -5 51 -2 0 -4 -15 -4 -32z"/>
<path d="M9910 865 c0 -8 5 -15 10 -15 6 0 10 7 10 15 0 8 -4 15 -10 15 -5 0
-10 -7 -10 -15z"/>
<path d="M10756 871 c-4 -7 -5 -15 -2 -18 9 -9 19 4 14 18 -4 11 -6 11 -12 0z"/>
<path d="M11622 856 c-1 -17 -12 -40 -24 -53 -18 -20 -19 -23 -5 -23 9 0 17 6
17 14 0 8 5 16 11 18 6 2 9 19 6 38 -3 32 -4 33 -5 6z"/>
<path d="M11856 867 c-6 -12 -3 -31 7 -53 16 -33 42 -49 31 -19 -4 8 -10 15
-14 15 -5 0 -10 17 -12 38 -3 29 -6 33 -12 19z"/>
<path d="M9980 860 c0 -5 9 -10 21 -10 11 0 17 5 14 10 -3 6 -13 10 -21 10 -8
0 -14 -4 -14 -10z"/>
<path d="M9288 834 c-27 -26 17 -78 60 -71 l27 4 -26 2 c-31 1 -46 16 -51 49
-1 13 -6 20 -10 16z"/>
<path d="M10040 836 c0 -2 7 -6 15 -10 8 -3 15 -1 15 4 0 6 -7 10 -15 10 -8 0
-15 -2 -15 -4z"/>
<path d="M10885 830 c3 -5 10 -10 16 -10 5 0 9 5 9 10 0 6 -7 10 -16 10 -8 0
-12 -4 -9 -10z"/>
<path d="M11197 814 c-6 -32 16 -54 51 -53 l27 2 -27 4 c-28 4 -47 40 -33 62
3 6 2 11 -3 11 -5 0 -12 -12 -15 -26z"/>
<path d="M12460 810 c0 -16 4 -30 8 -30 5 0 9 14 9 30 0 17 -4 30 -9 30 -4 0
-8 -13 -8 -30z"/>
<path d="M8020 805 c0 -27 31 -49 58 -42 12 3 10 5 -6 6 -17 1 -24 9 -28 31
-8 36 -24 40 -24 5z"/>
<path d="M8702 809 c2 -15 11 -25 23 -26 11 -2 14 0 8 3 -7 3 -13 12 -13 19 0
8 -5 17 -11 21 -7 4 -9 -2 -7 -17z"/>
<path d="M11985 804 c-9 -14 -15 -28 -12 -30 7 -8 37 26 37 42 0 20 -5 18 -25
-12z"/>
<path d="M10081 804 c0 -11 3 -14 6 -6 3 7 2 16 -1 19 -3 4 -6 -2 -5 -13z"/>
<path d="M8810 795 c-10 -12 -10 -15 4 -15 9 0 16 7 16 15 0 8 -2 15 -4 15 -2
0 -9 -7 -16 -15z"/>
<path d="M7815 790 c-3 -5 1 -10 10 -10 9 0 13 5 10 10 -3 6 -8 10 -10 10 -2
0 -7 -4 -10 -10z"/>
<path d="M10420 792 c0 -16 25 -32 50 -31 20 1 21 2 5 6 -11 3 -24 11 -28 19
-9 15 -27 19 -27 6z"/>
<path d="M7873 763 c9 -2 25 -2 35 0 9 3 1 5 -18 5 -19 0 -27 -2 -17 -5z"/>
<path d="M8373 763 c9 -2 23 -2 30 0 6 3 -1 5 -18 5 -16 0 -22 -2 -12 -5z"/>
<path d="M8753 763 c9 -2 25 -2 35 0 9 3 1 5 -18 5 -19 0 -27 -2 -17 -5z"/>
<path d="M9143 763 c9 -2 23 -2 30 0 6 3 -1 5 -18 5 -16 0 -22 -2 -12 -5z"/>
<path d="M9533 763 c9 -2 23 -2 30 0 6 3 -1 5 -18 5 -16 0 -22 -2 -12 -5z"/>
<path d="M9833 763 c9 -2 23 -2 30 0 6 3 -1 5 -18 5 -16 0 -22 -2 -12 -5z"/>
<path d="M10003 763 c9 -2 25 -2 35 0 9 3 1 5 -18 5 -19 0 -27 -2 -17 -5z"/>
<path d="M10673 763 c9 -2 23 -2 30 0 6 3 -1 5 -18 5 -16 0 -22 -2 -12 -5z"/>
<path d="M10843 763 c9 -2 25 -2 35 0 9 3 1 5 -18 5 -19 0 -27 -2 -17 -5z"/>
<path d="M11543 763 c9 -2 23 -2 30 0 6 3 -1 5 -18 5 -16 0 -22 -2 -12 -5z"/>
<path d="M11923 763 c9 -2 23 -2 30 0 6 3 -1 5 -18 5 -16 0 -22 -2 -12 -5z"/>
<path d="M12313 763 c9 -2 23 -2 30 0 6 3 -1 5 -18 5 -16 0 -22 -2 -12 -5z"/>
<path d="M12493 763 c9 -2 23 -2 30 0 6 3 -1 5 -18 5 -16 0 -22 -2 -12 -5z"/>
<path d="M12703 763 c9 -2 23 -2 30 0 6 3 -1 5 -18 5 -16 0 -22 -2 -12 -5z"/>
</g>
</svg>
